<svg xmlns="http://www.w3.org/2000/svg" viewBox="0 0 24 24" fill="none" stroke="currentColor" stroke-width="2" stroke-linecap="round" stroke-linejoin="round">
  <rect x="3" y="3" width="7" height="7" fill="currentColor"></rect>
  <rect x="14" y="3" width="7" height="7" fill="currentColor"></rect>
  <rect x="14" y="14" width="7" height="7" fill="currentColor"></rect>
  <rect x="3" y="14" width="7" height="7" fill="currentColor"></rect>
  <rect x="7" y="7" width="1" height="1" fill="currentColor"></rect>
  <rect x="17" y="7" width="1" height="1" fill="currentColor"></rect>
  <rect x="17" y="17" width="1" height="1" fill="currentColor"></rect>
  <rect x="7" y="17" width="1" height="1" fill="currentColor"></rect>
  <!-- Random QR modules -->
  <rect x="3" y="11" width="2" height="1" fill="currentColor"></rect>
  <rect x="6" y="11" width="1" height="2" fill="currentColor"></rect>
  <rect x="11" y="3" width="2" height="1" fill="currentColor"></rect>
  <rect x="11" y="6" width="1" height="3" fill="currentColor"></rect>
  <rect x="9" y="9" width="3" height="1" fill="currentColor"></rect>
  <rect x="14" y="11" width="3" height="2" fill="currentColor"></rect>
  <rect x="11" y="14" width="2" height="3" fill="currentColor"></rect>
  <rect x="19" y="11" width="2" height="1" fill="currentColor"></rect>
  <rect x="11" y="19" width="4" height="2" fill="currentColor"></rect>
  <rect x="17" y="14" width="1" height="2" fill="currentColor"></rect>
</svg>
